<svg width="104" height="39" viewBox="0 0 104 39" fill="none" xmlns="http://www.w3.org/2000/svg">
<path d="M104 3.17826C104 9.07175 75.9402 15.5769 73.8155 15.5769C72.6242 15.5769 71.2727 15.2989 71.2727 14.1869C71.2727 13.8154 71.6962 13.2784 72.4394 12.6311L70.4689 9.08795C70.2022 8.60821 70.4136 8.00043 70.9183 7.7958L71.2568 7.65858C71.8703 7.40986 72.5608 7.44694 73.1448 7.75995L76.7206 9.67669C78.1128 8.84057 79.6922 7.96514 81.3568 7.10325L74.3885 2.52578C73.8372 2.16361 73.8431 1.34452 74.3995 0.990587L74.9695 0.62797C75.9183 0.0244812 77.0716 -0.153765 78.1549 0.135538L89.7472 3.23153C93.3616 1.77895 96.6295 0.787513 98.5638 0.787513C99.0804 0.787513 99.5977 0.801374 100.097 0.837502L96.5962 2.43766L96.5124 3.62994L101.916 1.11473C103.212 1.42752 104 2.0113 104 3.17826ZM89.8975 13.3517L94.2214 18.3252C94.485 18.6283 94.9141 18.7196 95.2757 18.5494L95.8548 18.2768C96.9109 17.7798 97.5328 16.6529 97.3976 15.4818L96.8563 10.7954C96.8227 10.5055 96.5321 10.3219 96.2601 10.4189L90.0855 12.6212C89.785 12.7285 89.6868 13.1095 89.8975 13.3517Z" fill="#FCF5ED"/>
<path d="M18.5212 4.88516C17.9502 4.79844 17.3507 4.58887 16.7226 4.25644V3.43261H22.1184V4.25644C21.8757 4.41543 21.6188 4.54551 21.3475 4.64668C21.0763 4.74786 20.8123 4.82735 20.5553 4.88516L16.7654 18.6085L14.5386 18.8687L11.2198 8.37562L7.9866 18.6085L5.73836 18.8687L1.56306 4.88516C1.2633 4.82735 0.984942 4.74786 0.728001 4.64668C0.471059 4.53106 0.228392 4.40098 0 4.25644V3.43261H6.93742V4.25644C6.69475 4.38652 6.4164 4.50938 6.10236 4.625C5.80259 4.72618 5.48855 4.8129 5.16024 4.88516L7.15154 12.5382L7.60118 15.3565H7.64401L8.39342 12.4298L11.2412 3.43261H12.5045L15.545 12.3214L16.273 15.1397H16.3158L16.8083 12.278L18.5212 4.88516Z" fill="#FCF5ED"/>
<path d="M21.1346 13.1886C21.1346 12.3069 21.2631 11.5192 21.52 10.8254C21.7912 10.1172 22.1695 9.51743 22.6548 9.02602C23.1544 8.53461 23.754 8.15882 24.4534 7.89867C25.1529 7.63851 25.9451 7.50843 26.8301 7.50843C27.8294 7.50843 28.6858 7.65296 29.3996 7.94203C30.1276 8.21664 30.7199 8.60687 31.1767 9.11274C31.6478 9.60415 31.9904 10.204 32.2045 10.9122C32.4186 11.6059 32.5257 12.3647 32.5257 13.1886C32.5257 14.0702 32.3972 14.8651 32.1403 15.5733C31.8833 16.2671 31.505 16.8597 31.0054 17.3511C30.5201 17.8425 29.9206 18.2183 29.2068 18.4784C28.5074 18.7386 27.7152 18.8687 26.8301 18.8687C25.8595 18.8687 25.0173 18.7314 24.3035 18.4568C23.5898 18.1677 22.9974 17.7775 22.5264 17.2861C22.0553 16.7802 21.7056 16.1804 21.4772 15.4866C21.2488 14.7784 21.1346 14.0124 21.1346 13.1886ZM24.4534 13.1886C24.4534 13.839 24.4891 14.4388 24.5605 14.988C24.6461 15.5228 24.7889 15.978 24.9887 16.3538C25.1886 16.7296 25.4598 17.0259 25.8024 17.2427C26.145 17.445 26.5875 17.5462 27.1299 17.5462C27.4439 17.5462 27.7294 17.4739 27.9864 17.3294C28.2433 17.1704 28.4646 16.9247 28.6501 16.5923C28.8357 16.2454 28.9713 15.7974 29.057 15.2481C29.1569 14.6845 29.2068 13.9979 29.2068 13.1886C29.2068 12.5237 29.164 11.9239 29.0784 11.3891C29.007 10.8544 28.8714 10.3991 28.6715 10.0233C28.486 9.64751 28.229 9.35844 27.9007 9.1561C27.5724 8.9393 27.1584 8.8309 26.6588 8.8309C26.2877 8.8309 25.9665 8.91039 25.6953 9.06938C25.4241 9.21391 25.1957 9.45962 25.0101 9.80649C24.8246 10.1389 24.6818 10.587 24.5819 11.1506C24.4963 11.6999 24.4534 12.3792 24.4534 13.1886Z" fill="#FCF5ED"/>
<path d="M39.3935 10.2618C39.2222 10.3485 39.0224 10.493 38.794 10.6954C38.5656 10.8977 38.3586 11.2301 38.173 11.6926V17.2427C38.4585 17.2716 38.744 17.3294 39.0295 17.4161C39.315 17.4884 39.6005 17.604 39.886 17.763V18.6085H33.6766V17.763C33.9335 17.6185 34.1762 17.5101 34.4046 17.4378C34.6329 17.3655 34.8613 17.3005 35.0897 17.2427V9.30786L33.6766 9.13442V8.2889C33.9049 8.18773 34.1833 8.09378 34.5116 8.00706C34.8542 7.92035 35.2039 7.84808 35.5608 7.79027C35.9177 7.718 36.2602 7.66019 36.5886 7.61683C36.9311 7.57347 37.2166 7.53733 37.445 7.50843H38.173V10.3919H38.2587C38.3729 10.0739 38.537 9.74146 38.7511 9.39458C38.9795 9.0477 39.2436 8.72973 39.5434 8.44066C39.8432 8.1516 40.1715 7.92034 40.5283 7.74691C40.8852 7.57347 41.2563 7.49397 41.6417 7.50843C41.7988 7.71077 41.9344 7.99984 42.0486 8.37562C42.1628 8.73695 42.2555 9.08383 42.3269 9.41626V10.2618H39.3935Z" fill="#FCF5ED"/>
<path d="M48.9788 18.6085H43.0691V17.763C43.5402 17.5318 44.0113 17.3583 44.4823 17.2427V4.10469L42.855 3.93125V3.08573C43.0406 2.99901 43.2975 2.91229 43.6258 2.82557C43.9542 2.73885 44.3039 2.66659 44.675 2.60877C45.0604 2.53651 45.4387 2.4787 45.8098 2.43534C46.1953 2.37752 46.5378 2.33416 46.8376 2.30526H47.5656V17.2427C48.0367 17.3583 48.5077 17.5318 48.9788 17.763V18.6085Z" fill="#FCF5ED"/>
<path d="M57.4799 16.4622C57.4086 16.7802 57.2801 17.0837 57.0945 17.3728C56.909 17.6618 56.6877 17.922 56.4308 18.1532C56.1738 18.37 55.8812 18.5435 55.5529 18.6736C55.2246 18.8036 54.8748 18.8687 54.5037 18.8687C53.0905 18.8687 52.0128 18.4206 51.2705 17.5245C50.5425 16.614 50.1785 15.2265 50.1785 13.362C50.1785 12.4081 50.307 11.577 50.5639 10.8688C50.8209 10.1461 51.1777 9.53911 51.6345 9.0477C52.1056 8.55629 52.6694 8.18773 53.326 7.94203C53.9827 7.69632 54.7107 7.57347 55.51 7.57347C55.767 7.57347 55.9811 7.58069 56.1524 7.59515C56.338 7.6096 56.5021 7.63128 56.6449 7.66019C56.8019 7.67464 56.9446 7.71077 57.0731 7.76859C57.2159 7.81195 57.3729 7.86253 57.5442 7.92035V4.10469L55.9169 3.93125V3.08573C56.1167 2.99901 56.3879 2.91952 56.7305 2.84725C57.0874 2.77499 57.4585 2.70995 57.8439 2.65213C58.2293 2.57987 58.6076 2.51483 58.9788 2.45702C59.3499 2.3992 59.6568 2.34862 59.8995 2.30526H60.6275V17.0693L62.0406 17.2427V18.0015C61.8408 18.1027 61.5839 18.1966 61.2698 18.2833C60.9558 18.37 60.6275 18.4495 60.2849 18.5218C59.9423 18.5941 59.6068 18.6519 59.2785 18.6952C58.9645 18.7531 58.7004 18.7964 58.4863 18.8253H57.7583L57.5656 16.4622H57.4799ZM55.5315 17.1343C56.0311 17.1343 56.4522 16.9753 56.7948 16.6573C57.1373 16.3394 57.3871 15.7974 57.5442 15.0313V9.19946C57.3586 9.08383 57.1231 8.98989 56.8376 8.91762C56.5664 8.84535 56.2238 8.80922 55.8098 8.80922C54.9819 8.80922 54.3895 9.19223 54.0326 9.95825C53.6758 10.7098 53.4973 11.8083 53.4973 13.2536C53.4973 14.4243 53.6544 15.3638 53.9684 16.072C54.2824 16.7802 54.8035 17.1343 55.5315 17.1343Z" fill="#FCF5ED"/>
<path d="M0.663765 33.3199C0.663765 32.4382 0.792236 31.6505 1.04918 30.9568C1.32039 30.2486 1.69867 29.6487 2.184 29.1573C2.68361 28.6659 3.28314 28.2901 3.98259 28.03C4.68204 27.7698 5.47428 27.6397 6.3593 27.6397C7.35852 27.6397 8.21499 27.7843 8.92871 28.0733C9.65671 28.348 10.2491 28.7382 10.7059 29.2441C11.177 29.7355 11.5195 30.3353 11.7337 31.0435C11.9478 31.7372 12.0548 32.496 12.0548 33.3199C12.0548 34.2015 11.9264 34.9964 11.6694 35.7047C11.4125 36.3984 11.0342 36.991 10.5346 37.4824C10.0493 37.9738 9.44973 38.3496 8.73601 38.6098C8.03656 38.8699 7.24432 39 6.3593 39C5.38863 39 4.54644 38.8627 3.83271 38.5881C3.11898 38.299 2.52659 37.9088 2.05553 37.4174C1.58447 36.9115 1.23475 36.3117 1.00635 35.6179C0.777961 34.9097 0.663765 34.1437 0.663765 33.3199ZM3.98259 33.3199C3.98259 33.9703 4.01828 34.5701 4.08965 35.1193C4.1753 35.6541 4.31804 36.1093 4.51789 36.4851C4.71773 36.8609 4.98895 37.1572 5.33153 37.374C5.67412 37.5764 6.11663 37.6775 6.65906 37.6775C6.9731 37.6775 7.25859 37.6053 7.51554 37.4607C7.77248 37.3017 7.99373 37.056 8.1793 36.7236C8.36487 36.3767 8.50048 35.9287 8.58613 35.3795C8.68605 34.8158 8.73601 34.1293 8.73601 33.3199C8.73601 32.655 8.69318 32.0552 8.60754 31.5204C8.53616 30.9857 8.40056 30.5304 8.20071 30.1546C8.01515 29.7788 7.7582 29.4898 7.42989 29.2874C7.10157 29.0706 6.68761 28.9622 6.18801 28.9622C5.81687 28.9622 5.49569 29.0417 5.22448 29.2007C4.95326 29.3452 4.72487 29.5909 4.5393 29.9378C4.35373 30.2702 4.21098 30.7183 4.11106 31.282C4.02542 31.8312 3.98259 32.5105 3.98259 33.3199Z" fill="#FCF5ED"/>
<path d="M19.5864 22.4366C20.1717 22.4366 20.6927 22.4944 21.1495 22.61C21.6206 22.7112 21.9774 22.8124 22.2201 22.9135C22.1773 23.3905 22.0845 23.8819 21.9417 24.3878C21.799 24.8936 21.6705 25.3128 21.5563 25.6452H20.8283L19.8862 23.5856C19.5151 23.5856 19.201 23.629 18.9441 23.7157C18.7014 23.788 18.5016 23.9397 18.3445 24.171C18.2018 24.4022 18.0947 24.7346 18.0234 25.1682C17.952 25.5874 17.9163 26.1366 17.9163 26.8159V27.8999H20.186V29.2657H17.9163V37.374C18.6586 37.4607 19.3438 37.6342 19.9718 37.8943V38.7398H13.4198V37.8943C13.8623 37.6342 14.3334 37.4607 14.833 37.374V29.2657H13.2057V28.4202C13.7053 28.1022 14.2478 27.8638 14.833 27.7048V26.946C14.833 26.0499 14.9543 25.3128 15.197 24.7346C15.454 24.1421 15.7965 23.6796 16.2248 23.3471C16.653 23.0002 17.1526 22.7618 17.7236 22.6317C18.3089 22.5016 18.9298 22.4366 19.5864 22.4366Z" fill="#FCF5ED"/>
<path d="M26.6224 28.4202C27.1648 28.0733 27.7358 27.8276 28.3353 27.6831V25.927C28.421 25.8403 28.5637 25.7608 28.7636 25.6886C28.9777 25.6018 29.1989 25.5296 29.4273 25.4718C29.67 25.3995 29.9055 25.3344 30.1339 25.2766C30.3623 25.2188 30.5479 25.1755 30.6906 25.1466H31.4186V27.8999H34.245V29.2657H31.4186V34.8808C31.4186 35.7769 31.5257 36.3984 31.7398 36.7453C31.9682 37.0922 32.3393 37.2656 32.8532 37.2656C33.1101 37.2656 33.3956 37.2512 33.7097 37.2223C34.038 37.1789 34.3378 37.1066 34.609 37.0055L34.7589 37.7209C34.6304 37.851 34.4377 37.9883 34.1807 38.1328C33.9381 38.2773 33.6526 38.4146 33.3243 38.5447C33.0102 38.6748 32.6605 38.7832 32.2751 38.8699C31.9039 38.9566 31.5114 39 31.0974 39C30.1696 39 29.4773 38.7543 29.0205 38.2629C28.5637 37.7715 28.3353 36.9765 28.3353 35.8781V29.2657H26.6224V28.4202Z" fill="#FCF5ED"/>
<path d="M41.2127 30.3931C41.0414 30.4798 40.8415 30.6243 40.6131 30.8267C40.3847 31.029 40.1778 31.3615 39.9922 31.824V37.374C40.2777 37.4029 40.5632 37.4607 40.8487 37.5474C41.1342 37.6197 41.4196 37.7353 41.7051 37.8943V38.7398H35.4957V37.8943C35.7527 37.7498 35.9953 37.6414 36.2237 37.5691C36.4521 37.4969 36.6805 37.4318 36.9089 37.374V29.4392L35.4957 29.2657V28.4202C35.7241 28.319 36.0025 28.2251 36.3308 28.1384C36.6734 28.0517 37.0231 27.9794 37.38 27.9216C37.7368 27.8493 38.0794 27.7915 38.4077 27.7481C38.7503 27.7048 39.0358 27.6686 39.2642 27.6397H39.9922V30.5232H40.0778C40.192 30.2052 40.3562 29.8728 40.5703 29.5259C40.7987 29.179 41.0628 28.861 41.3625 28.572C41.6623 28.2829 41.9906 28.0517 42.3475 27.8782C42.7044 27.7048 43.0755 27.6253 43.4609 27.6397C43.6179 27.8421 43.7535 28.1312 43.8677 28.5069C43.9819 28.8683 44.0747 29.2151 44.1461 29.5476V30.3931H41.2127Z" fill="#FCF5ED"/>
<path d="M54.2881 35.5963C54.2881 35.9142 54.2881 36.1888 54.2881 36.4201C54.3023 36.6513 54.3238 36.8971 54.3523 37.1572L55.8297 37.374V38.1328C55.6584 38.2195 55.4229 38.3062 55.1231 38.393C54.8376 38.4797 54.5307 38.5664 54.2024 38.6531C53.8884 38.7254 53.5743 38.7832 53.2603 38.8266C52.9463 38.8844 52.6679 38.9277 52.4252 38.9566H51.6972C51.5545 38.6242 51.4689 38.2918 51.4403 37.9594C51.4118 37.6269 51.3903 37.2223 51.3761 36.7453H51.269C51.1976 37.0344 51.0763 37.3162 50.905 37.5908C50.7337 37.851 50.5125 38.0894 50.2412 38.3062C49.9843 38.5086 49.6774 38.6748 49.3205 38.8049C48.9637 38.935 48.564 39 48.1215 39C47.6504 39 47.215 38.9277 46.8154 38.7832C46.4157 38.6387 46.0659 38.4363 45.7662 38.1762C45.4664 37.916 45.2309 37.6053 45.0596 37.2439C44.8883 36.8681 44.8027 36.449 44.8027 35.9865C44.8027 35.3361 44.924 34.8013 45.1666 34.3822C45.4093 33.963 45.7876 33.6234 46.3015 33.3632C46.8296 33.0886 47.5005 32.8863 48.3142 32.7562C49.1421 32.6261 50.1413 32.5322 51.3118 32.4744C51.426 31.2314 51.3761 30.3208 51.1619 29.7427C50.9478 29.1646 50.4839 28.8755 49.7702 28.8755C49.3277 28.8755 48.9209 28.9478 48.5497 29.0923L47.5434 31.6939H46.6012C46.487 31.5204 46.3728 31.3253 46.2587 31.1085C46.1587 30.8773 46.0588 30.6388 45.9589 30.3931C45.8732 30.1329 45.7947 29.8728 45.7234 29.6126C45.6663 29.3525 45.6234 29.0995 45.5949 28.8538C46.1373 28.478 46.8368 28.1817 47.6932 27.9649C48.5497 27.7481 49.4561 27.6397 50.4125 27.6397C51.2262 27.6397 51.89 27.7337 52.4038 27.9216C52.9177 28.095 53.3174 28.3407 53.6029 28.6587C53.9027 28.9622 54.1096 29.3235 54.2238 29.7427C54.338 30.1618 54.3951 30.6099 54.3951 31.0868C54.3951 31.954 54.3737 32.7417 54.3309 33.45C54.3023 34.1437 54.2881 34.8591 54.2881 35.5963ZM49.4704 37.2656C49.7702 37.2656 50.0271 37.2078 50.2412 37.0922C50.4554 36.9765 50.6338 36.8392 50.7765 36.6803C50.9336 36.5213 51.0478 36.3478 51.1191 36.1599C51.2048 35.972 51.269 35.8058 51.3118 35.6613V33.4933C50.6409 33.5078 50.0914 33.5511 49.6631 33.6234C49.2349 33.6957 48.8994 33.8185 48.6568 33.992C48.4141 34.1509 48.2428 34.3605 48.1429 34.6207C48.0572 34.8664 48.0144 35.1699 48.0144 35.5312C48.0144 36.0804 48.1429 36.5068 48.3998 36.8103C48.6568 37.1138 49.0136 37.2656 49.4704 37.2656Z" fill="#FCF5ED"/>
<path d="M61.3463 39L57.0639 29.2657C56.65 29.1212 56.2717 28.9478 55.9291 28.7454V27.8999H61.5604V28.7237C61.3748 28.8249 61.1821 28.9261 60.9823 29.0273C60.7967 29.114 60.5826 29.1935 60.3399 29.2657L62.3312 34.8158L62.738 36.2683H62.7809L63.1234 34.7941L64.9435 29.2657C64.7151 29.2079 64.5009 29.1357 64.3011 29.0489C64.1155 28.9622 63.9371 28.861 63.7658 28.7454V27.8999H67.8983V28.7454C67.7555 28.8466 67.5771 28.9405 67.363 29.0273C67.1631 29.114 66.9347 29.1935 66.6778 29.2657L62.9307 38.7398L61.3463 39Z" fill="#FCF5ED"/>
<path d="M77.778 36.9187C77.6638 37.1644 77.4782 37.4174 77.2213 37.6775C76.9786 37.9232 76.6717 38.1473 76.3006 38.3496C75.9437 38.5375 75.5226 38.6893 75.0373 38.8049C74.5662 38.935 74.0523 39 73.4956 39C72.6106 39 71.8255 38.8699 71.1403 38.6098C70.4551 38.3352 69.8842 37.9521 69.4274 37.4607C68.9706 36.9549 68.6209 36.3551 68.3782 35.6613C68.1498 34.9675 68.0356 34.1871 68.0356 33.3199C68.0356 31.4699 68.5138 30.0607 69.4702 29.0923C70.4266 28.1239 71.7541 27.6397 73.4528 27.6397C74.1808 27.6397 74.8588 27.7409 75.4869 27.9433C76.1293 28.1456 76.6574 28.478 77.0714 28.9405C77.4996 29.403 77.7922 30.0101 77.9493 30.7616C78.1206 31.5132 78.1134 32.431 77.9278 33.515H71.3544C71.3687 34.6568 71.6542 35.5674 72.2109 36.2467C72.7819 36.926 73.617 37.2656 74.7161 37.2656C75.1871 37.2656 75.6725 37.1933 76.1721 37.0488C76.686 36.9043 77.0857 36.7164 77.3711 36.4851L77.778 36.9187ZM73.3671 28.8755C73.0816 28.8755 72.8247 28.9261 72.5963 29.0273C72.3822 29.1284 72.1895 29.3163 72.0182 29.5909C71.8612 29.8511 71.7327 30.2124 71.6328 30.6749C71.5329 31.123 71.4615 31.6939 71.4187 32.3876H74.866C74.9659 31.2603 74.9017 30.3931 74.6733 29.7861C74.4449 29.179 74.0095 28.8755 73.3671 28.8755Z" fill="#FCF5ED"/>
<path d="M85.4457 38.7398H79.5361V37.8943C80.0071 37.6631 80.4782 37.4896 80.9493 37.374V24.236L79.322 24.0626V23.217C79.5075 23.1303 79.7645 23.0436 80.0928 22.9569C80.4211 22.8702 80.7708 22.7979 81.142 22.7401C81.5274 22.6678 81.9056 22.61 82.2768 22.5667C82.6622 22.5088 83.0048 22.4655 83.3046 22.4366H84.0326V37.374C84.5036 37.4896 84.9747 37.6631 85.4457 37.8943V38.7398Z" fill="#FCF5ED"/>
</svg>
